Predator *1987* [1080p.Dual-audio.DTS-HD.MA 5.1.AC3.BluRay.x264-LEON 345] [Lektor i Napisy PL]
============================================================
 Uwaga!!!!!!Dla fanów Predatora którzy nie mogą patrzeć na to co zrobił Fox wydajac "cyfrowo ulepszoną" wersje Predator Ultimate Hunter Edition zrobiłem ripa z pierwszego "nieodpicowanego" wydania bluray tego filmu bez "figurek woskowych" :) !!!!!!!
 ============================================================

Głęboko w dżungli znaleziono wiszące na drzewach ciała obdarte ze skóry – jednak nikt nie wie kto lub co dokonało tej straszliwej masakry. Żołnierz sił specjalnych Dutch (Arnold Schwarzenegger) wraz ze swoim oddziałem zostaje wysłany, by zlikwidować zagrożenie, jednak gdy docierają do dżungli, odkrywają coś znacznie gorszego niż się spodziewali – Predatora – obcego, który wyposażony z śmiercionośną broń i doskonałą technikę kamuflażu przybył na Ziemię, by polować na ludzi i zdobywać trofea.

General
 Unique ID : 175368803480108905517441939729148188144 (0x83EECD90F9380413BC8425B2549695F0)
 Complete name : F:FilmyFilmy 3DSzablonWstawkaPREDATOR_1987_1080P_MPEG-2(Leon 345)PREDATOR_1987_BLU-RAYx264_1080P_MPEG-2(Leon 345).mkv
 Format : Matroska
 Format version : Version 2
 File size : 13.2 GiB
 Duration : 1h 46mn
 Encoding type : 2 pass
 Overall bit rate mode : Variable
 Overall bit rate : 17.7 Mbps
 Encoded date : UTC 2013-05-08 10:30:30
 Writing application : mkvmerge v5.7.0 ('The Whirlwind') built on Jul 8 2012 20:08:51
 Writing library : libebml v1.2.3 + libmatroska v1.3.0

 Video
 ID : 1
 Format : AVC
 Format/Info : Advanced Video Codec
 Format profile : High@L4.1
 Format settings, CABAC : Yes
 Format settings, ReFrames : 2 frames
 Codec ID : V_MPEG4/ISO/AVC
 Duration : 1h 46mn
 Bit rate mode : Variable
 Nominal bit rate : 12.1 Mbps
 Maximum bit rate : 35.0 Mbps
 Width : 1 920 pixels
 Height : 1 080 pixels
 Display aspect ratio : 16:9 (1.85:1)
 Frame rate mode : Constant
 Frame rate : 23.976 fps
 Color space : YUV
 Chroma subsampling : 4:2:0
 Bit depth : 8 bits
 Scan type : Progressive
 Bits/(Pixel*Frame) : 0.244
 Title : Rip by Leon 345 encoding 2 pass
 Writing library : x264 core 130 r2273 b3065e6
 Default : Yes
 Forced : No

 Audio #1
 ID : 2
 Format : AC-3
 Format/Info : Audio Coding 3
 Mode extension : CM (complete main)
 Format settings, Endianness : Big
 Codec ID : A_AC3
 Duration : 1h 46mn
 Bit rate mode : Constant
 Bit rate : 448 Kbps
 Channel(s) : 6 channels
 Channel positions : Front: L C R, Side: L R, LFE
 Sampling rate : 48.0 KHz
 Bit depth : 16 bits
 Compression mode : Lossy
 Stream size : 342 MiB (3%)
 Title : AC3 5.1 Lektor PL
 Language : Polish
 Default : Yes
 Forced : Yes

 Audio #2
 ID : 3
 Format : AC-3
 Format/Info : Audio Coding 3
 Mode extension : CM (complete main)
 Format settings, Endianness : Big
 Codec ID : A_AC3
 Duration : 1h 46mn
 Bit rate mode : Constant
 Bit rate : 640 Kbps
 Channel(s) : 6 channels
 Channel positions : Front: L C R, Side: L R, LFE
 Sampling rate : 48.0 KHz
 Bit depth : 16 bits
 Compression mode : Lossy
 Stream size : 488 MiB (4%)
 Title : AC3 5.1 Orginal
 Language : English
 Default : No
 Forced : No

 Audio #3
 ID : 4
 Format : DTS
 Format/Info : Digital Theater Systems
 Format profile : MA / Core
 Mode : 16
 Format settings, Endianness : Big
 Codec ID : A_DTS
 Duration : 1h 46mn
 Bit rate mode : Variable
 Bit rate : 4530 / 1 509 Kbps
 Channel(s) : 6 channels
 Channel positions : Front: L C R, Side: L R, LFE
 Sampling rate : 48.0 KHz
 Bit depth : 24 bits
 Compression mode : Lossless / Lossy
 Title : DTS-HD MA 5.1 Orginal
 Language : English
 Default : No
 Forced : No

 Text #1
 ID : 5
 Format : PGS
 Muxing mode : zlib
 Codec ID : S_HDMV/PGS
 Codec ID/Info : The same subtitle format used on BDs/HD-DVDs
 Language : Polish
 Default : No
 Forced : No

 Text #2
 ID : 6
 Format : PGS
 Muxing mode : zlib
 Codec ID : S_HDMV/PGS
 Codec ID/Info : The same subtitle format used on BDs/HD-DVDs
 Language : English
 Default : No
 Forced : No

 Text #3
 ID : 7
 Format : UTF-8
 Codec ID : S_TEXT/UTF8
 Codec ID/Info : UTF-8 Plain Text
 Default : Yes
 Forced : Yes

 Source [thx]:
 V- PREDATOR_1987_BLU-RAY_1080P_MPEG-2_DTS-HD_MA_5.1-CTRLHD
 A-Predator.Ultimate.Hunter.Edition.1987.BluRay.CEE.1080p.AVC.DTS-HD.MA5.1-CHDBits